<svg width="66" height="72" viewBox="0 0 66 72" fill="none" xmlns="http://www.w3.org/2000/svg">
<path fill-rule="evenodd" clip-rule="evenodd" d="M55.5149 69.89C55.5149 69.89 65.9193 70.6149 65.9193 59.0199C65.9193 47.4249 50.4575 39.1638 47.423 39.1638H33.644H18.9578C15.9234 39.1638 0.461548 47.4249 0.461548 59.0199C0.461548 70.6149 10.8652 69.89 10.8652 69.89H55.5149Z" fill="#FF4E42"/>
<path fill-rule="evenodd" clip-rule="evenodd" d="M54.3029 36.1433C54.4073 35.2893 54.4675 34.4204 54.4675 33.5388C54.4675 21.6863 44.7748 12.0769 32.8179 12.0769C20.8618 12.0769 11.1691 21.6863 11.1691 33.5388C11.1691 34.4822 11.2367 35.4108 11.3563 36.3214C10.1761 36.9787 8.30051 38.4363 8.87633 40.8754C9.70021 44.3614 14.0136 44.4069 14.0136 44.4069C14.0136 44.4069 14.0324 44.348 14.061 44.2489C17.8008 50.6733 24.7978 55 32.8179 55C41.0154 55 48.1478 50.4825 51.8229 43.8219C51.9176 44.1871 51.9853 44.4069 51.9853 44.4069C51.9853 44.4069 56.2994 44.3614 57.1233 40.8754C57.7593 38.1814 55.4079 36.6866 54.3029 36.1433Z" fill="#FFC024"/>
<path fill-rule="evenodd" clip-rule="evenodd" d="M11.2343 56.6499C5.84449 55.2514 3.03212 56.844 2.91465 56.9125C2.55623 57.1227 2.4335 57.5879 2.6353 57.956C2.83709 58.3256 3.29566 58.4558 3.65709 58.2524C3.68194 58.2378 6.12158 56.9094 10.8638 58.1431C15.8305 59.4322 25.4904 66.2559 25.5876 66.3244C25.7178 66.4176 25.8677 66.4615 26.0153 66.4615C26.254 66.4615 26.4889 66.346 26.635 66.1304C26.8721 65.7808 26.7863 65.301 26.4445 65.0584C26.0401 64.772 16.4637 58.0083 11.2343 56.6499Z" fill="#1820EF"/>
<path fill-rule="evenodd" clip-rule="evenodd" d="M63.0823 56.9131C62.9649 56.8446 60.1528 55.2506 54.7635 56.6506C49.5346 58.0089 39.9592 64.7721 39.5549 65.0585C39.2131 65.3019 39.128 65.7816 39.3644 66.1304C39.5105 66.346 39.7454 66.4615 39.9841 66.4615C40.1324 66.4615 40.2822 66.4176 40.4125 66.3252C40.5096 66.2559 50.1671 59.4334 55.1339 58.1436C59.8787 56.9116 62.3151 58.2391 62.3339 58.2499C62.6968 58.4617 63.1561 58.3331 63.3616 57.9642C63.5687 57.5954 63.443 57.1241 63.0823 56.9131Z" fill="#1820EF"/>
<path fill-rule="evenodd" clip-rule="evenodd" d="M39.0723 26.9222L39.0726 26.923L39.0728 26.9238C39.5104 28.5023 39.948 30.0808 40.3848 31.6593C40.5575 32.284 39.9673 32.801 39.3455 32.667C34.6767 31.6585 30.4961 29.2273 27.3352 25.7986C27.1663 27.822 27.4922 29.8404 28.2807 31.7568C28.5728 32.4668 27.6251 32.983 27.0394 32.6816C22.6229 30.4098 18.9154 27.0262 16.2847 22.9057C15.711 22.0057 17.1731 21.1837 17.7446 22.0785C19.8421 25.3639 22.6657 28.114 26.0008 30.1841C25.4788 28.0441 25.4728 25.8189 25.964 23.644C26.1344 22.8875 27.1115 22.9341 27.5087 23.4482C30.2145 26.9548 34.0669 29.4785 38.3737 30.7163C37.8383 28.7861 37.3036 26.8543 36.7697 24.9241C36.5421 24.1027 37.5664 23.5981 38.1815 24.1268C41.5894 27.0633 45.6393 29.1618 49.998 30.3486C48.6778 29.0315 47.5678 27.5271 46.7125 25.8568C46.3407 25.1323 47.1 24.3285 47.8682 24.7355C50.8721 26.3337 54.1636 27.3298 57.576 27.6458C58.6506 27.7448 58.6574 29.3839 57.576 29.2841C54.8207 29.0293 52.1525 28.3863 49.6217 27.364C50.6986 28.8247 52.0068 30.1127 53.5373 31.1656C54.3416 31.7197 53.8331 32.8134 52.8854 32.6634C47.8599 31.8653 43.1288 29.8681 39.0721 26.9213L39.0723 26.9222ZM45.3586 41.01C45.3246 40.8943 44.4747 38.1386 41.998 38.1386C39.5046 38.1386 38.6669 40.485 38.6321 40.5848C38.5011 40.963 38.0731 41.1705 37.6778 41.0476C37.2809 40.9254 37.0627 40.5204 37.19 40.1415C37.5899 38.9484 39.1093 36.6924 41.998 36.6924C45.6305 36.6924 46.7712 40.4611 46.8182 40.6217C46.9303 41.0063 46.6939 41.4055 46.2918 41.5125C46.2236 41.5299 46.1547 41.5385 46.0873 41.5385C45.7563 41.5385 45.4526 41.3296 45.3586 41.01ZM23.998 36.6924C21.1093 36.6924 19.5899 38.9484 19.19 40.1415C19.0627 40.5204 19.2809 40.9254 19.6778 41.0476C20.0731 41.1705 20.5011 40.963 20.6321 40.5848C20.6669 40.485 21.5046 38.1386 23.998 38.1386C26.4747 38.1386 27.3246 40.8943 27.3586 41.01C27.4526 41.3296 27.7563 41.5385 28.0873 41.5385C28.1547 41.5385 28.2236 41.5299 28.2918 41.5125C28.6939 41.4055 28.9303 41.0063 28.8182 40.6217C28.7712 40.4611 27.6305 36.6924 23.998 36.6924ZM33.0824 48.0232C33.5497 48.2898 34.4754 48.6509 35.209 47.9008C35.4958 47.6073 35.9595 47.6073 36.2463 47.9008C36.5331 48.1944 36.5331 48.6689 36.2463 48.9625C35.6088 49.615 34.8877 49.8462 34.2033 49.8462C33.2614 49.8462 32.3899 49.4085 31.9035 49.0286L31.6153 48.8033V40.2124C31.6153 39.7972 31.9432 39.4616 32.3488 39.4616C32.7538 39.4616 33.0824 39.7972 33.0824 40.2124V48.0232Z" fill="#1820EF"/>
<path fill-rule="evenodd" clip-rule="evenodd" d="M16.7443 6.00779C18.0783 7.32822 19.6633 8.67156 21.1521 10.0378C22.0892 10.8979 23.5994 10.0312 23.2583 8.82526L21.6039 2.98269C21.3719 2.16324 20.3707 1.81226 19.6511 2.2992L16.9313 4.13983C16.2872 4.57504 16.1957 5.46543 16.7443 6.00779Z" fill="#FF4E42"/>
<path fill-rule="evenodd" clip-rule="evenodd" d="M47.8704 6.00779C46.5371 7.32822 44.952 8.67156 43.4631 10.0378C42.5252 10.8979 41.0157 10.0312 41.3568 8.82526L43.0113 2.98269C43.2433 2.16324 44.2446 1.81226 44.9643 2.2992L47.6841 4.13983C48.3275 4.57504 48.4198 5.46543 47.8704 6.00779Z" fill="#FF4E42"/>
<path fill-rule="evenodd" clip-rule="evenodd" d="M30.2591 1.66702C30.6464 3.4793 31.2233 5.44236 31.7116 7.37496C32.0188 8.59008 33.6768 8.62945 34.0266 7.42547L35.7178 1.59052C35.9558 0.771282 35.3341 -0.0435011 34.5047 0.00180593L31.3741 0.168922C30.6334 0.20903 30.099 0.920573 30.2591 1.66702Z" fill="#FF4E42"/>
<path fill-rule="evenodd" clip-rule="evenodd" d="M42.5101 64.4647C46.0666 65.0702 46.8421 68.7677 46.8421 68.7677C47.0004 69.3039 42.2844 70.3456 42.2844 70.3456C39.983 71.0021 36.8984 71.4689 35.007 71.2552C33.117 71.0422 33.4865 68.8772 34.7217 67.8625C34.8481 67.7587 34.993 67.6344 35.1549 67.4953C36.5767 66.2742 39.3165 63.9212 42.5101 64.4647ZM23.4897 64.4647C19.9332 65.0702 19.1576 68.7677 19.1576 68.7677C18.9993 69.3039 23.7153 70.3456 23.7153 70.3456C26.0167 71.0021 29.1013 71.4689 30.9928 71.2552C32.8827 71.0422 32.5133 68.8772 31.2781 67.8625C31.1516 67.7587 31.0068 67.6344 30.8448 67.4953C29.4231 66.2742 26.6832 63.9212 23.4897 64.4647Z" fill="#FFC024"/>
</svg>
