<svg width="23" height="16" viewBox="0 0 23 16" fill="none" xmlns="http://www.w3.org/2000/svg">
<path fill-rule="evenodd" clip-rule="evenodd" d="M22.0291 7.23199L15.02 0.298656C14.6073 -0.11041 13.9489 -0.0976104 13.5518 0.326923C13.154 0.751457 13.1665 1.42666 13.5798 1.83519L18.7338 6.93333H1.32006C0.746356 6.93333 0.281677 7.41119 0.281677 7.99999C0.281677 8.58933 0.746356 9.06666 1.32006 9.06666H18.7338L13.5798 14.1653C13.1665 14.5739 13.154 15.2491 13.5518 15.6736C13.7558 15.8907 14.0273 16 14.2999 16C14.559 16 14.8186 15.9013 15.02 15.7019L22.0291 8.76853C22.2327 8.56746 22.3474 8.29013 22.3474 7.99999C22.3474 7.71039 22.2327 7.43306 22.0291 7.23199Z" fill="#FFC024"/>
</svg>
